<?xml version="1.0" encoding="utf-8"?>
<!-- Generator: Adobe Illustrator 16.0.0, SVG Export Plug-In . SVG Version: 6.00 Build 0)  -->
<!DOCTYPE svg PUBLIC "-//W3C//DTD SVG 1.1//EN" "http://www.w3.org/Graphics/SVG/1.1/DTD/svg11.dtd">
<svg version="1.1" id="Layer_1" xmlns="http://www.w3.org/2000/svg" xmlns:xlink="http://www.w3.org/1999/xlink" x="0px" y="0px"
	 width="60px" height="60px" viewBox="0 0 60 60" enable-background="new 0 0 60 60" xml:space="preserve">
<path fill-rule="evenodd" clip-rule="evenodd" fill="#09529F" d="M8.333,0h43.333C56.27,0,60,3.73,60,8.333v43.334
	C60,56.269,56.27,60,51.666,60H8.333C3.731,60,0,56.269,0,51.667V8.333C0,3.73,3.731,0,8.333,0z"/>
<g>
	<path fill-rule="evenodd" clip-rule="evenodd" fill="#FFFFFF" d="M31.093,26.354c3.866-2.175,7.693-4.342,11.538-6.476
		c0.515-0.285,0.354-0.683,0.354-1.065c-0.006-2.845,2.644-4.868,5.332-4.043c1.735,0.532,2.742,1.748,2.959,3.521
		c0.21,1.721-0.485,3.115-1.969,4.018c-1.509,0.919-3.069,0.858-4.529-0.135c-0.414-0.281-0.671-0.282-1.08-0.051
		c-3.592,2.042-7.193,4.066-10.799,6.082c-0.403,0.225-0.575,0.408-0.474,0.946c0.56,2.949-1.161,5.709-4.044,6.539
		c-0.452,0.129-0.607,0.313-0.625,0.785c-0.09,2.379-0.201,4.76-0.354,7.137c-0.035,0.559,0.091,0.844,0.607,1.123
		c1.698,0.923,2.459,2.855,1.958,4.743c-0.476,1.786-2.178,3.047-4.087,3.022c-1.896-0.024-3.504-1.303-3.978-3.161
		c-0.505-1.981,0.524-4.053,2.439-4.838c0.384-0.156,0.563-0.313,0.58-0.761c0.096-2.478,0.226-4.952,0.365-7.429
		c0.022-0.393-0.056-0.593-0.457-0.75c-2.367-0.935-3.661-2.713-3.725-5.24c-0.062-2.438,1.083-4.276,3.308-5.297
		c2.311-1.061,4.452-0.63,6.354,1.036C30.859,26.14,30.947,26.222,31.093,26.354z"/>
	<path fill-rule="evenodd" clip-rule="evenodd" fill="#FFFFFF" d="M22.87,7.5c1.538,0.007,2.722,1.206,2.706,2.74
		c-0.015,1.532-1.216,2.704-2.76,2.693c-1.537-0.01-2.728-1.218-2.706-2.746C20.133,8.644,21.313,7.493,22.87,7.5z"/>
	<path fill-rule="evenodd" clip-rule="evenodd" fill="#FFFFFF" d="M41.796,43.04c1.505,0.004,2.739,1.228,2.749,2.724
		c0.009,1.519-1.272,2.796-2.784,2.773c-1.505-0.023-2.703-1.256-2.694-2.771C39.074,44.248,40.285,43.037,41.796,43.04z"/>
	<path fill-rule="evenodd" clip-rule="evenodd" fill="#FFFFFF" d="M11.45,35.946c-1.514,0.015-2.744-1.184-2.763-2.691
		c-0.017-1.546,1.212-2.79,2.751-2.783c1.499,0.007,2.747,1.25,2.743,2.733C14.176,34.711,12.96,35.933,11.45,35.946z"/>
	<path fill-rule="evenodd" clip-rule="evenodd" fill="#FFFFFF" d="M36.065,39.303c0.779,0.02,2.884,2.159,2.804,2.73
		c-0.043,0.292-0.266,0.682-0.512,0.79c-0.272,0.118-0.774,0.093-0.984-0.092c-0.671-0.589-1.295-1.247-1.848-1.948
		c-0.177-0.224-0.179-0.71-0.063-0.999C35.563,39.535,35.94,39.396,36.065,39.303z"/>
	<path fill-rule="evenodd" clip-rule="evenodd" fill="#FFFFFF" d="M34.683,37.649c-0.18,0.21-0.346,0.561-0.611,0.667
		c-0.265,0.106-0.739,0.094-0.93-0.079c-0.694-0.635-1.361-1.32-1.922-2.073c-0.167-0.224-0.084-0.895,0.128-1.072
		c0.254-0.214,0.924-0.307,1.14-0.125c0.736,0.619,1.359,1.374,2.006,2.094C34.596,37.173,34.599,37.374,34.683,37.649z"/>
	<path fill-rule="evenodd" clip-rule="evenodd" fill="#FFFFFF" d="M16.954,33.247c-0.619,0.022-1.017-0.16-1.111-0.712
		c-0.093-0.546,0.106-0.961,0.687-1.096c0.824-0.19,1.647-0.391,2.48-0.533c0.514-0.089,0.92,0.151,1.042,0.679
		c0.126,0.543-0.078,0.987-0.64,1.13C18.569,32.93,17.712,33.085,16.954,33.247z"/>
	<path fill-rule="evenodd" clip-rule="evenodd" fill="#FFFFFF" d="M26.197,22.298c0.011,0.61-0.25,0.97-0.771,1.063
		c-0.528,0.094-0.927-0.173-1.055-0.68c-0.197-0.776-0.355-1.565-0.465-2.358c-0.065-0.486,0.203-0.854,0.697-0.967
		c0.517-0.118,0.965,0.073,1.105,0.587C25.926,20.736,26.048,21.557,26.197,22.298z"/>
	<path fill-rule="evenodd" clip-rule="evenodd" fill="#FFFFFF" d="M22.746,14.557c0.235-0.211,0.513-0.661,0.827-0.689
		c0.327-0.028,0.896,0.278,0.999,0.566c0.282,0.793,0.457,1.647,0.502,2.487c0.015,0.298-0.41,0.756-0.741,0.903
		c-0.44,0.196-0.891-0.089-1.019-0.568C23.096,16.437,22.96,15.596,22.746,14.557z"/>
</g>
</svg>
