<?xml version="1.0" encoding="utf-8"?>
<!-- Generator: Adobe Illustrator 16.0.0, SVG Export Plug-In . SVG Version: 6.00 Build 0)  -->
<!DOCTYPE svg PUBLIC "-//W3C//DTD SVG 1.1//EN" "http://www.w3.org/Graphics/SVG/1.1/DTD/svg11.dtd">
<svg version="1.1" id="Layer_1" xmlns="http://www.w3.org/2000/svg" xmlns:xlink="http://www.w3.org/1999/xlink" x="0px" y="0px"
	 width="60px" height="60px" viewBox="0 0 60 60" enable-background="new 0 0 60 60" xml:space="preserve">
<g>
	<path fill="#09529F" d="M30,29.344c6.672,0,12.078-6.569,12.078-14.672C42.078,6.569,40.301,0,30,0
		C19.696,0,17.921,6.569,17.921,14.672C17.921,22.775,23.328,29.344,30,29.344z"/>
	<path fill="#09529F" d="M7.185,51.748C7.183,51.254,7.181,51.607,7.185,51.748L7.185,51.748z"/>
	<path fill="#09529F" d="M52.813,52.133C52.82,51.996,52.817,51.195,52.813,52.133L52.813,52.133z"/>
	<path fill="#09529F" d="M52.788,51.152c-0.225-14.115-2.067-18.135-16.175-20.683c0,0-1.986,2.532-6.613,2.532
		c-4.629,0-6.615-2.532-6.615-2.532C9.432,32.988,7.477,36.949,7.219,50.697c-0.021,1.119-0.03,1.178-0.034,1.051
		c0,0.24,0.002,0.693,0.002,1.48c0,0,3.358,6.771,22.813,6.771s22.813-6.771,22.813-6.771c0-0.504,0-0.855,0-1.096
		C52.811,52.213,52.801,52.057,52.788,51.152z"/>
</g>
</svg>
