<?xml version="1.0" encoding="utf-8"?>
<!-- Generator: Adobe Illustrator 16.0.0, SVG Export Plug-In . SVG Version: 6.00 Build 0)  -->
<!DOCTYPE svg PUBLIC "-//W3C//DTD SVG 1.1//EN" "http://www.w3.org/Graphics/SVG/1.1/DTD/svg11.dtd">
<svg version="1.1" id="Layer_1" xmlns="http://www.w3.org/2000/svg" xmlns:xlink="http://www.w3.org/1999/xlink" x="0px" y="0px"
	 width="60px" height="60px" viewBox="0 0 60 60" enable-background="new 0 0 60 60" xml:space="preserve">
<g>
	<path fill-rule="evenodd" clip-rule="evenodd" fill="#09529F" d="M51.533,29.953c0,9.214-0.002,18.429,0.001,27.645
		c0.002,0.737-0.068,1.481-0.726,1.914c-0.403,0.266-0.938,0.467-1.414,0.469c-12.919,0.024-25.839,0.021-38.757,0.017
		c-1.4,0-2.153-0.817-2.157-2.319c-0.006-5.757-0.006-11.513-0.006-17.27c0-8.055,0.015-16.11-0.009-24.163
		C8.463,15.208,8.8,14.429,9.535,13.7c4.25-4.206,8.476-8.436,12.685-12.682C22.911,0.321,23.651-0.003,24.646,0
		c8.099,0.027,16.198,0.015,24.299,0.015c1.912,0,2.588,0.668,2.588,2.561C51.533,11.701,51.533,20.827,51.533,29.953z
		 M29.19,40.928c5.561,3.076,10.854,0.827,13.327-2.463c2.881-3.833,2.798-9.046-0.169-12.58c-3.093-3.682-8.218-4.759-12.421-2.591
		c-2.092,1.079-3.664,2.69-4.609,4.85c-1.408,3.215-1.128,6.367,0.569,9.446c-1.997-0.135-2.942,0.156-4.165,1.354
		c-1.673,1.638-3.333,3.291-4.969,4.966c-1.406,1.44-1.75,3.426-0.935,5.049c1.41,2.803,4.888,3.296,7.196,1.013
		c1.475-1.46,2.903-2.966,4.407-4.392C28.751,44.321,29.549,42.9,29.19,40.928z M22.027,13.568c0-2.25,0-4.447,0-6.802
		c-2.329,2.28-4.543,4.451-6.758,6.621c0.046,0.06,0.09,0.12,0.135,0.181C17.613,13.568,19.822,13.568,22.027,13.568z"/>
	<path fill-rule="evenodd" clip-rule="evenodd" fill="#09529F" d="M34.556,38.467c-3.449,0.024-6.212-2.728-6.207-6.184
		c0.007-3.426,2.729-6.16,6.154-6.18c3.428-0.018,6.221,2.764,6.215,6.194C40.713,35.716,37.986,38.444,34.556,38.467z"/>
</g>
</svg>
