<?xml version="1.0" encoding="utf-8"?>
<!-- Generator: Adobe Illustrator 16.0.0, SVG Export Plug-In . SVG Version: 6.00 Build 0)  -->
<!DOCTYPE svg PUBLIC "-//W3C//DTD SVG 1.1//EN" "http://www.w3.org/Graphics/SVG/1.1/DTD/svg11.dtd">
<svg version="1.1" id="Layer_1" xmlns="http://www.w3.org/2000/svg" xmlns:xlink="http://www.w3.org/1999/xlink" x="0px" y="0px"
	 width="60px" height="60px" viewBox="0 0 60 60" enable-background="new 0 0 60 60" xml:space="preserve">
<g>
	<path fill-rule="evenodd" clip-rule="evenodd" fill="#09529F" d="M12.854,8.565c0,2.895,0,5.678,0,8.519c11.419,0,22.79,0,34.274,0
		c0-0.229,0-0.474,0-0.718c0-2.384,0.012-4.767-0.01-7.149c-0.005-0.486,0.107-0.702,0.635-0.653
		c1.326,0.121,2.713,0.004,3.973,0.357c2.329,0.652,3.615,2.387,3.925,4.771c0.127,0.984,0.062,1.997,0.062,2.996
		c0.002,12.385-0.003,24.771,0.007,37.155c0.001,2.014-0.637,3.716-2.263,4.969C52.41,59.619,51.218,60,49.895,60
		c-5.661-0.003-11.322,0-16.983,0c-7.534,0-15.066,0-22.601-0.003c-3.581,0-6.029-2.422-6.032-5.995
		C4.271,40.83,4.269,27.656,4.275,14.483c0.001-3.419,2.515-5.903,5.94-5.917C11.063,8.562,11.908,8.565,12.854,8.565z
		 M27.112,46.714C32.49,41.341,37.898,35.938,43.23,30.61c-1.265-1.278-2.571-2.603-3.972-4.018
		c-4.028,4.029-8.094,8.092-12.215,12.213c-2.157-2.162-4.302-4.313-6.433-6.452c-1.321,1.341-2.632,2.668-3.898,3.95
		C20.16,39.756,23.658,43.257,27.112,46.714z"/>
	<path fill-rule="evenodd" clip-rule="evenodd" fill="#09529F" d="M35.792,5.708c1.831,0,3.674,0,5.58,0c0,2.871,0,5.683,0,8.542
		c-7.58,0-15.143,0-22.761,0c0-2.827,0-5.638,0-8.513c1.875,0,3.717,0,5.623,0c0.142-1.993,0.918-3.618,2.556-4.73
		c1.025-0.698,2.179-1.056,3.434-1.002C33.113,0.129,34.874,1.923,35.792,5.708z"/>
</g>
</svg>
